<svg xmlns="http://www.w3.org/2000/svg" viewBox="0 0 202 228"><defs><style>.cls-1{fill:none;stroke:#000;stroke-miterlimit:10;}</style></defs><title>アセット 12</title><g id="レイヤー_2" data-name="レイヤー 2"><g id="レイヤー_1-2" data-name="レイヤー 1"><path d="M101,1A18,18,0,1,1,83,19,18,18,0,0,1,101,1m0-1a19,19,0,1,0,19,19A19,19,0,0,0,101,0Z"/><line class="cls-1" x1="100.5" y1="0.5" x2="100.5" y2="37.5"/><path d="M19,48A18,18,0,1,1,1,66,18,18,0,0,1,19,48m0-1A19,19,0,1,0,38,66,19,19,0,0,0,19,47Z"/><line class="cls-1" x1="18.5" y1="47.5" x2="18.5" y2="84.5"/><path d="M19,142A18,18,0,1,1,1,160a18,18,0,0,1,18-18m0-1a19,19,0,1,0,19,19,19,19,0,0,0-19-19Z"/><line class="cls-1" x1="18.5" y1="141.5" x2="18.5" y2="178.5"/><path d="M183,48a18,18,0,1,1-18,18,18,18,0,0,1,18-18m0-1a19,19,0,1,0,19,19,19,19,0,0,0-19-19Z"/><line class="cls-1" x1="182.5" y1="47.5" x2="182.5" y2="84.5"/><path d="M183,142a18,18,0,1,1-18,18,18,18,0,0,1,18-18m0-1a19,19,0,1,0,19,19,19,19,0,0,0-19-19Z"/><line class="cls-1" x1="182.5" y1="141.5" x2="182.5" y2="178.5"/><path d="M101,191a18,18,0,1,1-18,18,18,18,0,0,1,18-18m0-1a19,19,0,1,0,19,19,19,19,0,0,0-19-19Z"/><line class="cls-1" x1="100.5" y1="190.5" x2="100.5" y2="227.5"/></g></g></svg>