<svg xmlns="http://www.w3.org/2000/svg" viewBox="0 0 202.01 228"><defs><style>.cls-1{fill:none;stroke:#000;stroke-miterlimit:10;}</style></defs><title>アセット 14</title><g id="レイヤー_2" data-name="レイヤー 2"><g id="レイヤー_1-2" data-name="レイヤー 1"><path d="M101,0V1A18,18,0,1,1,85.74,9.46,18,18,0,0,1,101,1V0m0,0a19,19,0,1,0,10,2.89A19,19,0,0,0,101,0Z"/><line class="cls-1" x1="110.38" y1="3.05" x2="90.77" y2="34.42"/><path d="M19,48h0a18,18,0,0,1,14.6,28.51A18,18,0,0,1,8.49,80.62,18,18,0,0,1,19,48m0-1a19,19,0,1,0,11.07,3.58A19,19,0,0,0,19,47Z"/><line class="cls-1" x1="34.31" y1="76.4" x2="4.27" y2="54.8"/><path d="M19,142A18,18,0,1,1,1,160a18,18,0,0,1,18-18m0-1a19,19,0,1,0,19,19,19,19,0,0,0-19-19Z"/><line class="cls-1" x1="18.5" y1="141.5" x2="18.5" y2="178.5"/><path d="M183,47v1a18.22,18.22,0,0,1,5.41.83A18,18,0,1,1,183,48V47m0,0a19,19,0,0,0-5.7,37.13A19.24,19.24,0,0,0,183,85a19,19,0,0,0,0-38Z"/><line class="cls-1" x1="165.2" y1="60.92" x2="200.5" y2="72.03"/><path d="M183,142h.07a18,18,0,0,1-.07,36h-.06A18,18,0,0,1,165,159.94,18,18,0,0,1,183,142m0-1a19,19,0,0,0-.07,38H183a19,19,0,0,0,.07-38Z"/><line class="cls-1" x1="201.5" y1="159.57" x2="164.5" y2="159.44"/><path d="M101,190v1h0a18,18,0,1,1-10.86,3.65A17.87,17.87,0,0,1,101,191v-1m0,0a19,19,0,1,0,15.16,7.53A18.91,18.91,0,0,0,101,190Z"/><line class="cls-1" x1="86.56" y1="220.57" x2="116.05" y2="198.23"/></g></g></svg>