<svg xmlns="http://www.w3.org/2000/svg" viewBox="0 0 202.01 228"><defs><style>.cls-1{fill:none;stroke:#000;stroke-miterlimit:10;}</style></defs><title>アセット 12</title><g id="レイヤー_2" data-name="レイヤー 2"><g id="レイヤー_1-2" data-name="レイヤー 1"><path d="M101,1h0a18,18,0,0,1,0,36,18,18,0,0,1,0-36m0-1a19,19,0,1,0,16.24,9.12A19,19,0,0,0,101,0Z"/><line class="cls-1" x1="116.55" y1="8.95" x2="84.94" y2="28.2"/><path d="M183,142a18,18,0,1,1-18,18,18,18,0,0,1,18-18m0-1a19,19,0,1,0,19,19,19,19,0,0,0-19-19Z"/><line class="cls-1" x1="182.51" y1="141.5" x2="182.51" y2="178.5"/><path d="M101,191a18,18,0,1,1-18,18,18,18,0,0,1,18-18m0-1a19,19,0,1,0,19,19,19,19,0,0,0-19-19Z"/><line class="cls-1" x1="100.51" y1="190.5" x2="100.51" y2="227.5"/><path d="M19,50h0a18,18,0,1,1-9.35,2.63A17.9,17.9,0,0,1,19,50m0-1a19,19,0,1,0,16.25,9.12A18.92,18.92,0,0,0,19,49Z"/><line class="cls-1" x1="34.54" y1="57.97" x2="2.94" y2="77.22"/><path d="M19,142h0a18,18,0,1,1-9.34,2.63A17.89,17.89,0,0,1,19,142m0-1a19,19,0,1,0,16.25,9.13A18.93,18.93,0,0,0,19,141Z"/><line class="cls-1" x1="34.56" y1="149.99" x2="2.96" y2="169.23"/><path d="M183,50h0a18,18,0,1,1-9.35,2.63A17.9,17.9,0,0,1,183,50m0-1a19,19,0,1,0,16.25,9.12A18.92,18.92,0,0,0,183,49Z"/><line class="cls-1" x1="198.54" y1="57.97" x2="166.94" y2="77.22"/></g></g></svg>