<svg xmlns="http://www.w3.org/2000/svg" viewBox="0 0 202.01 228"><defs><style>.cls-1{fill:none;stroke:#000;stroke-miterlimit:10;}</style></defs><title>アセット 16</title><g id="レイヤー_2" data-name="レイヤー 2"><g id="レイヤー_1-2" data-name="レイヤー 1"><path d="M101,1h0a18,18,0,0,1,0,36,18,18,0,0,1,0-36m0-1a19,19,0,1,0,16.24,9.12A19,19,0,0,0,101,0Z"/><line class="cls-1" x1="116.55" y1="8.95" x2="84.94" y2="28.2"/><path d="M183,141v1h0a18,18,0,1,1-17,12,18,18,0,0,1,17-12v-1m0,0a19,19,0,1,0,6.35,1.1A19,19,0,0,0,183,141Z"/><line class="cls-1" x1="165.4" y1="154.28" x2="200.27" y2="166.66"/><path d="M101,190v1h0a18,18,0,1,1-10.38,3.31A17.85,17.85,0,0,1,101,191v-1m0,0a19,19,0,1,0,15.53,8A18.93,18.93,0,0,0,101,190Z"/><line class="cls-1" x1="112.1" y1="223.82" x2="90.73" y2="193.61"/><path d="M19,50h0a18,18,0,1,1-9.35,2.63A17.9,17.9,0,0,1,19,50m0-1a19,19,0,1,0,16.25,9.12A18.92,18.92,0,0,0,19,49Z"/><line class="cls-1" x1="34.54" y1="57.97" x2="2.94" y2="77.22"/><path d="M19,142h0a18,18,0,1,1-9.34,2.63A17.89,17.89,0,0,1,19,142m0-1a19,19,0,1,0,16.25,9.13A18.93,18.93,0,0,0,19,141Z"/><line class="cls-1" x1="34.56" y1="149.99" x2="2.96" y2="169.23"/><path d="M183,50h0a18,18,0,1,1-9.35,2.63A17.9,17.9,0,0,1,183,50m0-1a19,19,0,1,0,16.25,9.12A18.92,18.92,0,0,0,183,49Z"/><line class="cls-1" x1="198.54" y1="57.97" x2="166.94" y2="77.22"/></g></g></svg>